<svg width="48" height="38" viewBox="0 0 48 38" fill="none" xmlns="http://www.w3.org/2000/svg">
<path d="M3.5 0C1.84315 0 0.5 1.34315 0.5 3V22C0.5 23.6569 1.84315 25 3.5 25H17L16.6805 28.8339C16.6759 28.8897 16.6735 28.9451 16.6735 29H11.9542C11.658 29 11.3685 29.0877 11.1221 29.2519L9.62211 30.2519C8.38726 31.0752 8.97005 33 10.4542 33H26.5V29H24.3265C24.3265 28.9451 24.3241 28.8897 24.3195 28.8339L24 25H26.5V10C26.5 7.23858 28.7386 5 31.5 5H40.5V3C40.5 1.34315 39.1569 0 37.5 0H3.5Z" fill="#B27DE8"/>
<g style="mix-blend-mode:plus-darker" opacity="0.1">
<path d="M40.5 5H31.5C28.7386 5 26.5 7.23858 26.5 10V19.74C24.5613 19.9105 22.5548 20 20.5 20C12.8165 20 5.80756 18.7483 0.5 16.6898V3C0.5 1.34315 1.84315 0 3.5 0H37.5C39.1569 0 40.5 1.34315 40.5 3V5Z" fill="url(#paint0_linear_1410_487)"/>
</g>
<path d="M28.5 10C28.5 8.34315 29.8431 7 31.5 7H43.5C45.1569 7 46.5 8.34315 46.5 10V34C46.5 35.6569 45.1569 37 43.5 37H31.5C29.8431 37 28.5 35.6569 28.5 34V10Z" fill="#E6E6E6"/>
<path fill-rule="evenodd" clip-rule="evenodd" d="M47.5 10C47.5 7.79086 45.7091 6 43.5 6H31.5C29.2909 6 27.5 7.79086 27.5 10V34C27.5 36.2091 29.2909 38 31.5 38H43.5C45.7091 38 47.5 36.2091 47.5 34V10ZM28.5 10C28.5 8.34315 29.8431 7 31.5 7H43.5C45.1569 7 46.5 8.34315 46.5 10V34C46.5 35.6569 45.1569 37 43.5 37H31.5C29.8431 37 28.5 35.6569 28.5 34V10Z" fill="url(#paint1_linear_1410_487)"/>
<g style="mix-blend-mode:plus-darker" opacity="0.15">
<path d="M46.5 23.1657C43.7357 23.7028 40.6939 24 37.5 24C34.3061 24 31.2643 23.7028 28.5 23.1657V10C28.5 8.34315 29.8431 7 31.5 7H43.5C45.1569 7 46.5 8.34315 46.5 10V23.1657Z" fill="url(#paint2_linear_1410_487)"/>
</g>
<rect x="34.5" y="8" width="6" height="2" rx="1" fill="url(#paint3_linear_1410_487)"/>
<defs>
<linearGradient id="paint0_linear_1410_487" x1="20.5" y1="-6" x2="20.5" y2="20" gradientUnits="userSpaceOnUse">
<stop stop-opacity="0"/>
<stop offset="1"/>
</linearGradient>
<linearGradient id="paint1_linear_1410_487" x1="48.6111" y1="4.93333" x2="19.4625" y2="12.546" gradientUnits="userSpaceOnUse">
<stop stop-color="#B37DE8"/>
<stop offset="0.5" stop-color="white"/>
<stop offset="1" stop-color="#B27CE8"/>
</linearGradient>
<linearGradient id="paint2_linear_1410_487" x1="37.5" y1="3" x2="37.5" y2="24" gradientUnits="userSpaceOnUse">
<stop stop-opacity="0"/>
<stop offset="1"/>
</linearGradient>
<linearGradient id="paint3_linear_1410_487" x1="40.5" y1="8" x2="23.437" y2="30.8834" gradientUnits="userSpaceOnUse">
<stop stop-color="#B37DE8"/>
<stop offset="0.5" stop-color="white"/>
<stop offset="1" stop-color="#B27CE8"/>
</linearGradient>
</defs>
</svg>
