<svg width="10" height="10" viewBox="0 0 10 10" fill="none" xmlns="http://www.w3.org/2000/svg">
<path d="M5.0509 5.82353H4.33081C4.28889 5.82371 4.24886 5.80887 4.22066 5.78272C4.19246 5.75657 4.17875 5.72155 4.18295 5.68639L4.24653 5.07549C4.25271 5.01055 4.31713 4.96058 4.39439 4.96079H5.11448C5.15639 4.96061 5.19643 4.97544 5.22463 5.00159C5.25282 5.02775 5.26653 5.06276 5.26234 5.09793L5.19876 5.70883C5.19258 5.77376 5.12815 5.82374 5.0509 5.82353ZM5.16631 4.62745H4.43283C4.35181 4.62745 4.28614 4.56795 4.28614 4.49455L4.48564 2.43068C4.49459 2.36357 4.55772 2.31324 4.63234 2.31373H5.36582C5.44684 2.31373 5.51251 2.37323 5.51251 2.44663L5.30714 4.51183C5.29783 4.57643 5.23819 4.62539 5.16631 4.62745ZM9.47908 2.22069C9.55714 2.30597 9.59528 2.41699 9.58492 2.52881L9.29823 5.59494C9.28904 5.69523 9.24147 5.78906 9.16426 5.85922L6.81985 7.98848C6.73616 8.06421 6.62418 8.10645 6.50771 8.10621H4.01191L1.81486 10L1.985 8.10496H0.867721C0.742235 8.10505 0.622475 8.05587 0.537646 7.96942C0.452818 7.88296 0.410718 7.76718 0.421613 7.6503L1.1035 0.375753C1.1269 0.161964 1.31975 -0.000471865 1.54961 1.02989e-06H7.23917C7.37006 -3.43134e-05 7.4944 0.0535159 7.57944 0.146544L9.47908 2.22069ZM7.74154 5.01002L7.92373 3.11749C7.9308 3.00528 7.88928 2.89514 7.80852 2.81187L6.73679 1.65456C6.65186 1.56313 6.52872 1.51059 6.3992 1.51052H3.02324C2.79338 1.51005 2.60053 1.67248 2.57713 1.88627L2.17523 6.14479C2.16598 6.26131 2.20865 6.37622 2.29312 6.46232C2.3776 6.54841 2.49638 6.59804 2.62134 6.59945H5.94103C6.0562 6.59971 6.16705 6.55843 6.25049 6.48422L7.60757 5.27555C7.68507 5.20508 7.73266 5.11076 7.74154 5.01002Z" fill="url(#paint0_linear_272_3)"/>
<defs>
<linearGradient id="paint0_linear_272_3" x1="799.71" y1="2.27545e-06" x2="39.6455" y2="936.578" gradientUnits="userSpaceOnUse">
<stop stop-color="#F59C07"/>
<stop offset="1" stop-color="#F57507"/>
</linearGradient>
</defs>
</svg>
