<svg width="10" height="10" viewBox="0 0 10 10" fill="none" xmlns="http://www.w3.org/2000/svg">
<path d="M3.85241 1.82788C2.86476 1.95702 1.95776 2.4409 1.3005 3.18933C0.643228 3.93775 0.280537 4.89964 0.280029 5.8957C0.280063 6.98425 0.712503 8.02821 1.48222 8.79793C2.25195 9.56765 3.2959 10.0001 4.38445 10.0001C5.473 10.0001 6.51696 9.56765 7.28668 8.79793C8.0564 8.02821 8.48884 6.98425 8.48888 5.8957C8.48892 5.78696 8.48465 5.67827 8.47607 5.56988C7.98027 5.87377 7.4102 6.03487 6.82868 6.03542C5.99111 6.03541 5.18784 5.70268 4.59559 5.11042C4.00333 4.51817 3.6706 3.7149 3.67059 2.87733C3.67135 2.51974 3.73283 2.16488 3.85241 1.82788Z" fill="#F2F2F2"/>
<path d="M6.82883 5.75434C8.41785 5.75434 9.706 4.46619 9.706 2.87717C9.706 1.28815 8.41785 0 6.82883 0C5.23981 0 3.95166 1.28815 3.95166 2.87717C3.95166 4.46619 5.23981 5.75434 6.82883 5.75434Z" fill="white"/>
</svg>
