<svg width="10" height="10" viewBox="0 0 10 10" fill="none" xmlns="http://www.w3.org/2000/svg">
<path d="M3.85729 1.82788C2.86964 1.95702 1.96265 2.4409 1.30538 3.18933C0.648111 3.93775 0.28542 4.89964 0.284912 5.8957C0.284946 6.98425 0.717386 8.02821 1.48711 8.79793C2.25683 9.56765 3.30079 10.0001 4.38934 10.0001C5.47789 10.0001 6.52184 9.56765 7.29157 8.79793C8.06129 8.02821 8.49373 6.98425 8.49376 5.8957C8.49381 5.78696 8.48953 5.67827 8.48095 5.56988C7.98515 5.87377 7.41508 6.03487 6.83356 6.03542C5.99599 6.03541 5.19272 5.70268 4.60047 5.11042C4.00821 4.51817 3.67548 3.7149 3.67547 2.87733C3.67623 2.51974 3.73771 2.16488 3.85729 1.82788Z" fill="#615D6A"/>
<path d="M6.83371 5.75434C8.42273 5.75434 9.71088 4.46619 9.71088 2.87717C9.71088 1.28815 8.42273 0 6.83371 0C5.2447 0 3.95654 1.28815 3.95654 2.87717C3.95654 4.46619 5.2447 5.75434 6.83371 5.75434Z" fill="#615D6A"/>
</svg>
