<svg width="10" height="10" viewBox="0 0 10 10" fill="none" xmlns="http://www.w3.org/2000/svg">
<path d="M5 0.225354C3.68794 0.212021 2.42426 0.720175 1.4867 1.63814C0.54913 2.5561 0.014391 3.80876 0 5.12081C0.00505563 6.1577 0.338611 7.16632 0.952756 8.00178C1.5669 8.83725 2.43003 9.45658 3.41818 9.77081C3.66818 9.81626 3.75909 9.66626 3.75909 9.53444C3.75909 9.40263 3.75909 9.11172 3.75909 8.70263C2.36818 8.99808 2.07273 8.04808 2.07273 8.04808C1.98013 7.74985 1.78329 7.49492 1.51818 7.3299C1.06364 7.0299 1.55455 7.03444 1.55455 7.03444C1.71166 7.05545 1.86198 7.11175 1.99423 7.19913C2.12648 7.28651 2.23724 7.4027 2.31818 7.53899C2.45924 7.78359 2.6907 7.96303 2.96273 8.03869C3.23477 8.11435 3.52563 8.08018 3.77273 7.94353C3.79814 7.69462 3.91086 7.46274 4.09091 7.28899C2.98182 7.16626 1.81818 6.74808 1.81818 4.87081C1.80826 4.38112 1.9892 3.90677 2.32273 3.54808C2.17083 3.12766 2.18877 2.66459 2.37273 2.25717C2.37273 2.25717 2.79545 2.12535 3.73636 2.75717C4.55541 2.53892 5.41732 2.53892 6.23636 2.75717C7.19091 2.12535 7.6 2.25717 7.6 2.25717C7.78396 2.66459 7.8019 3.12766 7.65 3.54808C7.99127 3.90019 8.18202 4.37136 8.18182 4.86172C8.18182 6.74353 7.00909 7.15717 5.90909 7.2799C6.02954 7.39684 6.12258 7.53901 6.18152 7.6962C6.24047 7.85339 6.26385 8.02169 6.25 8.18899V9.5299C6.25 9.5299 6.34091 9.81626 6.59091 9.76626C7.57625 9.45008 8.43648 8.83061 9.04872 7.99633C9.66097 7.16204 9.99391 6.15562 10 5.12081C9.98561 3.80876 9.45087 2.5561 8.5133 1.63814C7.57574 0.720175 6.31206 0.212021 5 0.225354Z" fill="#231F20"/>
</svg>
