<svg width="256" height="256" viewBox="0 0 256 256" fill="none" xmlns="http://www.w3.org/2000/svg">
<rect width="256" height="256" rx="56" fill="url(#paint0_linear_992_99)"/>
<path fill-rule="evenodd" clip-rule="evenodd" d="M106.614 204.304L117.305 216.105C123.218 222.632 132.79 222.632 138.688 216.105L149.379 204.304C137.569 191.269 118.424 191.269 106.614 204.304ZM63.8491 157.101L85.2316 180.703C108.807 154.665 147.186 154.665 170.777 180.703L192.159 157.101C156.728 117.977 99.2799 117.977 63.8491 157.101ZM223.567 122.417L213.542 133.484C166.301 81.3405 89.7078 81.3405 42.4516 133.484L32.4259 122.417C26.0142 115.34 26.6643 103.625 33.7565 97.366C88.7399 48.878 167.268 48.878 222.252 97.366C229.344 103.625 229.979 115.34 223.567 122.417Z" fill="white"/>
<path d="M199.5 171L191.152 189.152L173 197.5L191.152 205.781L199.5 224L207.781 205.781L226 197.5L207.781 189.152" fill="white"/>
<path d="M52.5 12L44.8438 28.8438L28 36.5L44.8438 44.1562L52.5 61L60.1562 44.1562L77 36.5L60.1562 28.8438" fill="white"/>
<path d="M215.5 32L210.344 43.3438L199 48.5L210.344 53.6562L215.5 65L220.656 53.6562L232 48.5L220.656 43.3438" fill="white"/>
<defs>
<linearGradient id="paint0_linear_992_99" x1="128" y1="0" x2="128" y2="256" gradientUnits="userSpaceOnUse">
<stop stop-color="#D7BAFF"/>
<stop offset="1" stop-color="#796BB5"/>
</linearGradient>
</defs>
</svg>
