<svg width="10" height="10" viewBox="0 0 10 10" fill="none" xmlns="http://www.w3.org/2000/svg">
<path fill-rule="evenodd" clip-rule="evenodd" d="M5.03277 2.87255L5.02681 2.34064C5.72149 2.34766 6.38936 2.62766 6.88085 3.11915C7.37872 3.61702 7.65957 4.29574 7.65957 5C7.65957 5.70426 7.37872 6.38298 6.88085 6.88085C6.40319 7.35851 5.75894 7.6366 5.08532 7.6583L5.07957 7.12617C5.61468 7.10617 6.12511 6.88532 6.50426 6.50426C6.90426 6.10638 7.12766 5.56383 7.12766 5C7.12766 4.43617 6.90426 3.89362 6.50426 3.49574C6.11404 3.1034 5.58489 2.88106 5.03277 2.87255ZM5.04213 3.72404L5.07021 6.27468C5.38298 6.25745 5.68043 6.12596 5.90213 5.90213C6.14255 5.66383 6.2766 5.3383 6.2766 5C6.2766 4.6617 6.14255 4.33617 5.90213 4.09787C5.67383 3.86745 5.36511 3.73468 5.04213 3.72404ZM5.01745 1.48936L5.01043 0.851064C6.10681 0.85383 7.15787 1.29191 7.93404 2.06596C8.71064 2.84468 9.14894 3.9 9.14894 5C9.14894 6.1 8.71064 7.15532 7.93404 7.93404C7.17936 8.6866 6.16489 9.12149 5.1017 9.14766L5.09468 8.50936C5.99021 8.48511 6.84574 8.11808 7.48298 7.48298C8.14043 6.8234 8.51064 5.92979 8.51064 5C8.51064 4.07021 8.14043 3.1766 7.48298 2.51702C6.82745 1.86362 5.94106 1.49404 5.01745 1.48936ZM0 5C0 3.67447 0.52766 2.40213 1.46383 1.46383C2.40213 0.52766 3.67447 0 5 0C6.32553 0 7.59787 0.52766 8.53617 1.46383C9.47234 2.40213 10 3.67447 10 5C10 6.32553 9.47234 7.59787 8.53617 8.53617C7.59787 9.47234 6.32553 10 5 10C3.67447 10 2.40213 9.47234 1.46383 8.53617C0.52766 7.59787 0 6.32553 0 5Z" fill="url(#paint0_linear_272_20)"/>
<defs>
<linearGradient id="paint0_linear_272_20" x1="-0.00038" y1="5" x2="9.99962" y2="5" gradientUnits="userSpaceOnUse">
<stop stop-color="#D300DC"/>
<stop offset="1" stop-color="#8700FF"/>
</linearGradient>
</defs>
</svg>
