<svg width="10" height="10" viewBox="0 0 10 10" fill="none" xmlns="http://www.w3.org/2000/svg">
<path fill-rule="evenodd" clip-rule="evenodd" d="M7.95765 4.43262C6.34591 3.47549 3.68752 3.38744 2.14887 3.85441C1.90181 3.92943 1.64053 3.78992 1.56566 3.54285C1.49079 3.29564 1.63015 3.03451 1.87744 2.95942C3.64356 2.42333 6.57957 2.52683 8.435 3.62825C8.65726 3.76018 8.73022 4.04722 8.59844 4.26903C8.46658 4.49129 8.17939 4.56454 7.95765 4.43262ZM7.90487 5.8503C7.79186 6.03376 7.55194 6.09126 7.3687 5.97862C6.025 5.15269 3.9761 4.91342 2.38637 5.396C2.18023 5.45828 1.96247 5.34204 1.89989 5.13627C1.83776 4.93014 1.95408 4.71281 2.15984 4.65009C3.97581 4.09905 6.23334 4.36592 7.77662 5.31435C7.95986 5.42721 8.01751 5.66721 7.90487 5.8503ZM7.29309 7.21174C7.2032 7.35906 7.01135 7.40522 6.86455 7.31547C5.69047 6.59783 4.21257 6.4358 2.47214 6.83334C2.30443 6.87177 2.13724 6.76664 2.09903 6.59901C2.0606 6.43131 2.16529 6.26412 2.33344 6.22583C4.23804 5.79045 5.8718 5.97781 7.18966 6.78321C7.3366 6.87287 7.38291 7.06487 7.29309 7.21174ZM5 0C2.23861 0 0 2.23854 0 4.99993C0 7.76161 2.23861 10 5 10C7.76146 10 10 7.76161 10 4.99993C10 2.23854 7.76146 0 5 0Z" fill="#1ED760"/>
</svg>
