<svg width="10" height="10" viewBox="0 0 10 10" fill="none" xmlns="http://www.w3.org/2000/svg">
<path d="M0.203418 6.43818C0.82154 8.49871 2.73362 10 4.99661 10C7.75975 10 9.99979 7.76136 9.99979 5C9.99979 2.23858 7.75975 0 4.99661 0C2.34509 0 0.175504 2.06133 0.00415039 4.66782C0.00415039 5.41668 0.00415039 5.72918 0.203418 6.43818Z" fill="url(#paint0_linear_270_59)"/>
<path d="M4.73951 3.77239L3.51522 5.54975C3.22662 5.53664 2.93608 5.61829 2.69491 5.77679L0.00654177 4.67079C0.00654177 4.67079 -0.0556654 5.69354 0.203577 6.45575L2.10411 7.23947C2.19953 7.66564 2.49208 8.03947 2.92369 8.21929C3.62983 8.51414 4.44405 8.17807 4.7378 7.47207C4.81426 7.2875 4.8499 7.09397 4.84472 6.90082L6.63944 5.65061C7.68776 5.65061 8.53979 4.79654 8.53979 3.74768C8.53979 2.69876 7.68776 1.84546 6.63944 1.84546C5.6269 1.84546 4.68276 2.72895 4.73951 3.77239ZM4.44533 7.34932C4.21797 7.89482 3.59072 8.15361 3.04547 7.92657C2.79395 7.82186 2.60404 7.63 2.49448 7.40125L3.11312 7.65747C3.51522 7.82486 3.97654 7.63429 4.14369 7.23257C4.31137 6.83043 4.12115 6.36864 3.71926 6.20125L3.07976 5.93643C3.32651 5.84289 3.60705 5.83947 3.86915 5.94847C4.13337 6.05832 4.3384 6.26522 4.44705 6.52957C4.55572 6.79397 4.5553 7.08579 4.44533 7.34932ZM6.63944 5.01543C5.94158 5.01543 5.3734 4.44675 5.3734 3.74768C5.3734 3.04918 5.94158 2.48035 6.63944 2.48035C7.33776 2.48035 7.9059 3.04918 7.9059 3.74768C7.9059 4.44675 7.33776 5.01543 6.63944 5.01543ZM5.69076 3.74575C5.69076 3.21989 6.11679 2.79336 6.64158 2.79336C7.16683 2.79336 7.59283 3.21989 7.59283 3.74575C7.59283 4.27168 7.16683 4.69782 6.64158 4.69782C6.11679 4.69782 5.69076 4.27168 5.69076 3.74575Z" fill="white"/>
<defs>
<linearGradient id="paint0_linear_270_59" x1="5.00196" y1="0" x2="5.00196" y2="10" gradientUnits="userSpaceOnUse">
<stop stop-color="#111D2E"/>
<stop offset="0.21248" stop-color="#051839"/>
<stop offset="0.40695" stop-color="#0A1B48"/>
<stop offset="0.5811" stop-color="#132E62"/>
<stop offset="0.7376" stop-color="#144B7E"/>
<stop offset="0.87279" stop-color="#136497"/>
<stop offset="1" stop-color="#1387B8"/>
</linearGradient>
</defs>
</svg>
