<svg width="10" height="10" viewBox="0 0 10 10" fill="none" xmlns="http://www.w3.org/2000/svg">
<path d="M4.99976 10C7.76118 10 9.99976 7.76142 9.99976 5C9.99976 2.23858 7.76118 0 4.99976 0C2.23833 0 -0.000244141 2.23858 -0.000244141 5C-0.000244141 7.76142 2.23833 10 4.99976 10Z" fill="url(#paint0_linear_270_69)"/>
<path fill-rule="evenodd" clip-rule="evenodd" d="M2.26293 4.94723C3.72053 4.31218 4.6925 3.89351 5.17882 3.69123C6.56737 3.11368 6.8559 3.01336 7.04396 3.01005C7.08532 3.00932 7.17781 3.01957 7.23771 3.06818C7.2883 3.10922 7.30221 3.16467 7.30887 3.20358C7.31553 3.2425 7.32383 3.33115 7.31723 3.40042C7.24199 4.19103 6.9164 6.10966 6.75076 6.99516C6.68067 7.36985 6.54266 7.49548 6.40905 7.50778C6.1187 7.5345 5.89821 7.31589 5.61698 7.13154C5.17692 6.84307 4.92831 6.6635 4.50115 6.38201C4.00749 6.0567 4.32751 5.8779 4.60884 5.5857C4.68247 5.50922 5.9618 4.34557 5.98656 4.24001C5.98966 4.22681 5.99253 4.1776 5.9633 4.15161C5.93406 4.12563 5.89091 4.13451 5.85977 4.14158C5.81564 4.1516 5.11263 4.61626 3.75074 5.53557C3.5512 5.6726 3.37045 5.73936 3.20851 5.73586C3.02999 5.732 2.68658 5.63492 2.43128 5.55193C2.11816 5.45015 1.86929 5.39633 1.89096 5.22347C1.90225 5.13344 2.02624 5.04135 2.26293 4.94723Z" fill="white"/>
<defs>
<linearGradient id="paint0_linear_270_69" x1="500" y1="0" x2="500" y2="992.583" gradientUnits="userSpaceOnUse">
<stop stop-color="#2AABEE"/>
<stop offset="1" stop-color="#229ED9"/>
</linearGradient>
</defs>
</svg>
