<svg width="10" height="10" viewBox="0 0 10 10" fill="none" xmlns="http://www.w3.org/2000/svg">
<path d="M4.99988 10.0003C7.76137 10.0003 10 7.76162 10 5.00013C10 2.23863 7.76137 0 4.99988 0C2.23839 0 -0.000244141 2.23863 -0.000244141 5.00013C-0.000244141 7.76162 2.23839 10.0003 4.99988 10.0003Z" fill="black"/>
<path d="M4.30418 4.1575V3.88459C4.21062 3.8718 4.11555 3.86377 4.01848 3.86377C2.84959 3.86377 1.89868 4.81468 1.89868 5.98357C1.89868 6.7007 2.25712 7.33531 2.80369 7.71909C2.45077 7.34033 2.2343 6.83289 2.2343 6.27579C2.2343 5.12371 3.15837 4.18408 4.30418 4.15725V4.1575Z" fill="#25F4EE"/>
<path d="M4.35419 7.2442C4.87567 7.2442 5.30109 6.82932 5.3204 6.3126L5.32216 1.69701H6.16546C6.1479 1.60219 6.13837 1.50462 6.13837 1.40479H4.98654L4.98479 6.02038C4.96547 6.53735 4.54006 6.95198 4.01857 6.95198C3.85653 6.95198 3.70378 6.91134 3.56958 6.84086C3.74567 7.08467 4.03137 7.24445 4.35444 7.24445L4.35419 7.2442Z" fill="#25F4EE"/>
<path d="M7.74057 3.26352V3.00692C7.419 3.00692 7.11926 2.91135 6.86792 2.74756C7.09166 3.00441 7.39567 3.18978 7.74057 3.26352Z" fill="#25F4EE"/>
<path d="M6.86787 2.74727C6.6228 2.46583 6.47381 2.09836 6.47381 1.69678H6.16528C6.24655 2.13549 6.50692 2.51199 6.86787 2.74727Z" fill="#FE2C55"/>
<path d="M4.01851 5.01561C3.48474 5.01561 3.05029 5.44981 3.05029 5.98383C3.05029 6.35557 3.26124 6.67864 3.56927 6.84068C3.45439 6.68165 3.38591 6.48676 3.38591 6.27606C3.38591 5.74228 3.82035 5.30784 4.35413 5.30784C4.45371 5.30784 4.54928 5.32439 4.63983 5.35248V4.17683C4.54627 4.16403 4.4512 4.15601 4.35413 4.15601C4.33732 4.15601 4.32077 4.15701 4.30396 4.15726V5.06026C4.21366 5.03192 4.11784 5.01561 4.01826 5.01561H4.01851Z" fill="#FE2C55"/>
<path d="M7.74063 3.26343V4.15865C7.14339 4.15865 6.59005 3.96752 6.1383 3.64344V5.98397C6.1383 7.15286 5.18739 8.10377 4.0185 8.10377C3.56675 8.10377 3.14786 7.9613 2.80371 7.71949C3.191 8.13513 3.74258 8.39599 4.35437 8.39599C5.52325 8.39599 6.47416 7.44508 6.47416 6.2762V3.93566C6.92592 4.25999 7.47926 4.45088 8.07649 4.45088V3.29905C7.96136 3.29905 7.84899 3.2865 7.74088 3.26343H7.74063Z" fill="#FE2C55"/>
<path d="M6.13836 5.98378V3.64325C6.59011 3.96758 7.14345 4.15846 7.74068 4.15846V3.26324C7.39579 3.18949 7.09178 3.00412 6.86803 2.74727C6.50708 2.51199 6.24672 2.13549 6.16545 1.69678H5.32214L5.32039 6.31237C5.30107 6.82934 4.87566 7.24397 4.35417 7.24397C4.0311 7.24397 3.7454 7.08444 3.56931 6.84038C3.26104 6.67809 3.05034 6.35527 3.05034 5.98353C3.05034 5.44976 3.48478 5.01531 4.01856 5.01531C4.11814 5.01531 4.21371 5.03187 4.30426 5.05996V4.15696C3.15845 4.1838 2.23438 5.12342 2.23438 6.2755C2.23438 6.83285 2.45084 7.34004 2.80377 7.7188C3.14816 7.9606 3.56681 8.10308 4.01856 8.10308C5.18744 8.10308 6.13836 7.15217 6.13836 5.98328V5.98378Z" fill="white"/>
</svg>
