<svg width="10" height="10" viewBox="0 0 10 10" fill="none" xmlns="http://www.w3.org/2000/svg">
<path d="M0 4.8C0 2.53733 0 1.406 0.703 0.703C1.406 0 2.53733 0 4.8 0H5.2C7.46267 0 8.594 0 9.297 0.703C10 1.406 10 2.53733 10 4.8V5.2C10 7.46267 10 8.594 9.297 9.297C8.594 10 7.46267 10 5.2 10H4.8C2.53733 10 1.406 10 0.703 9.297C0 8.594 0 7.46267 0 5.2V4.8Z" fill="#0077FF"/>
<path d="M5.32108 7.20441C3.04174 7.20441 1.74208 5.64175 1.68774 3.04175H2.82941C2.86708 4.95008 3.70841 5.75841 4.37508 5.92508V3.04175H5.45008V4.68775C6.10841 4.61708 6.80008 3.86675 7.03341 3.04175H8.10841C7.92908 4.05841 7.17908 4.80841 6.64608 5.11675C7.17941 5.36675 8.03374 6.02108 8.35874 7.20441H7.17541C6.92108 6.41275 6.28808 5.80008 5.45041 5.71675V7.20441H5.32108Z" fill="white"/>
</svg>
