<svg width="15" height="10" viewBox="0 0 15 10" fill="none" xmlns="http://www.w3.org/2000/svg">
<path d="M13.8969 1.56178C13.7337 0.9471 13.2528 0.463067 12.6421 0.298793C11.5352 0.000244141 7.09677 0.000244141 7.09677 0.000244141C7.09677 0.000244141 2.65833 0.000244141 1.55144 0.298793C0.940774 0.463067 0.459803 0.9471 0.296591 1.56178C0 2.67583 0 5.00024 0 5.00024C0 5.00024 0 7.32462 0.296591 8.43878C0.459803 9.05339 0.940774 9.53742 1.55144 9.70176C2.65833 10.0002 7.09677 10.0002 7.09677 10.0002C7.09677 10.0002 11.5352 10.0002 12.6421 9.70176C13.2528 9.53742 13.7337 9.05339 13.8969 8.43878C14.1935 7.32462 14.1935 5.00024 14.1935 5.00024C14.1935 5.00024 14.1935 2.67583 13.8969 1.56178Z" fill="#ED1D24"/>
<path d="M5.64526 7.1106L9.35494 5.00031L5.64526 2.88983V7.1106Z" fill="white"/>
</svg>
